<svg width="38" height="42" viewBox="0 0 38 42" fill="none" xmlns="http://www.w3.org/2000/svg">
<path d="M37.1251 34.3312C32.6618 32.3156 32.492 23.6637 32.4887 23.4454V17.641C32.4887 12.0546 29.075 7.25085 24.2241 5.20547C24.2137 2.33334 21.8744 0 19.0002 0C16.1258 0 13.7867 2.33347 13.7762 5.20533C8.92542 7.25071 5.51168 12.0544 5.51168 17.6409V23.4452C5.50853 23.6635 5.3386 32.3154 0.875135 34.3311C0.366674 34.5608 0.087222 35.1143 0.204781 35.6597C0.322203 36.2052 0.804586 36.5948 1.3626 36.5948H12.6779C12.9099 37.8709 13.5132 39.058 14.4361 40.0195C15.6618 41.2966 17.2827 41.9999 19 41.9999C20.7174 41.9999 22.3383 41.2966 23.5638 40.0195C24.4868 39.0579 25.0902 37.8707 25.322 36.5948H36.6373C37.1953 36.5948 37.6776 36.2053 37.7952 35.6597C37.9129 35.1143 37.6336 34.5608 37.1251 34.3312ZM31.2456 30.1865C31.7148 31.609 32.3792 33.0375 33.3213 34.2263H4.67889C5.62087 33.0377 6.28525 31.6092 6.75446 30.1865H31.2456ZM19.0002 2.36868C20.3003 2.36868 21.3996 3.24231 21.7435 4.43314C20.8574 4.24935 19.9399 4.15245 19.0002 4.15245C18.0604 4.15245 17.1429 4.24928 16.2568 4.43314C16.6008 3.24238 17.7001 2.36868 19.0002 2.36868ZM7.88036 23.4525V17.6408C7.88036 11.5094 12.8686 6.52113 19.0002 6.52113C25.1317 6.52113 30.12 11.5094 30.12 17.6408V23.4622C30.1215 23.6403 30.1493 25.5127 30.6211 27.8176H7.3789C7.85106 25.5105 7.87892 23.6349 7.88036 23.4525ZM19.0002 39.6314C17.1924 39.6314 15.6148 38.328 15.1084 36.5949H22.8918C22.3854 38.328 20.808 39.6314 19.0002 39.6314Z" fill="black"/>
</svg>
