<svg width="16" height="8" viewBox="0 0 16 8" fill="none" xmlns="http://www.w3.org/2000/svg">
<g clip-path="url(#clip0_7_70)">
<path d="M15.531 5.72372L9.13098 0.390382C8.83094 0.140421 8.42404 0 7.99978 0C7.57552 0 7.16863 0.140421 6.86858 0.390382L0.468582 5.72372C0.244887 5.91018 0.0925556 6.14774 0.0308475 6.40634C-0.0308605 6.66494 0.000824666 6.93299 0.121897 7.17659C0.242969 7.42019 0.447992 7.62841 0.711048 7.77492C0.974104 7.92143 1.28338 7.99966 1.59978 7.99972L14.3998 7.99972C14.7162 7.99966 15.0255 7.92143 15.2885 7.77492C15.5516 7.62841 15.7566 7.42019 15.8777 7.17659C15.9987 6.93299 16.0304 6.66494 15.9687 6.40634C15.907 6.14774 15.7547 5.91018 15.531 5.72372Z" fill="#767C8C"/>
</g>
<defs>
<clipPath id="clip0_7_70">
<rect width="16" height="8" fill="white" transform="matrix(-1 0 0 -1 16 8)"/>
</clipPath>
</defs>
</svg>
